G04 #@! TF.GenerationSoftware,KiCad,Pcbnew,(5.0.2)-1*
G04 #@! TF.CreationDate,2019-03-31T11:29:19+03:00*
G04 #@! TF.ProjectId,galvo-schematic,67616c76-6f2d-4736-9368-656d61746963,rev?*
G04 #@! TF.SameCoordinates,Original*
G04 #@! TF.FileFunction,Copper,L1,Top*
G04 #@! TF.FilePolarity,Positive*
%FSLAX46Y46*%
G04 Gerber Fmt 4.6, Leading zero omitted, Abs format (unit mm)*
G04 Created by KiCad (PCBNEW (5.0.2)-1) date 31.03.2019 11:29:19*
%MOMM*%
%LPD*%
G01*
G04 APERTURE LIST*
G04 #@! TA.AperFunction,SMDPad,CuDef*
%ADD10R,1.200000X1.200000*%
G04 #@! TD*
G04 #@! TA.AperFunction,SMDPad,CuDef*
%ADD11R,1.500000X1.600000*%
G04 #@! TD*
G04 #@! TA.AperFunction,Conductor*
%ADD12C,0.100000*%
G04 #@! TD*
G04 #@! TA.AperFunction,ComponentPad*
%ADD13C,1.740000*%
G04 #@! TD*
G04 #@! TA.AperFunction,ComponentPad*
%ADD14O,1.740000X2.200000*%
G04 #@! TD*
G04 #@! TA.AperFunction,ComponentPad*
%ADD15C,1.700000*%
G04 #@! TD*
G04 #@! TA.AperFunction,ComponentPad*
%ADD16O,1.700000X1.950000*%
G04 #@! TD*
G04 #@! TA.AperFunction,ComponentPad*
%ADD17C,3.600000*%
G04 #@! TD*
G04 #@! TA.AperFunction,ComponentPad*
%ADD18O,3.048000X1.524000*%
G04 #@! TD*
G04 #@! TA.AperFunction,SMDPad,CuDef*
%ADD19R,1.450000X0.450000*%
G04 #@! TD*
G04 #@! TA.AperFunction,ViaPad*
%ADD20C,0.800000*%
G04 #@! TD*
G04 #@! TA.AperFunction,Conductor*
%ADD21C,0.250000*%
G04 #@! TD*
G04 APERTURE END LIST*
D10*
G04 #@! TO.P,X-GAIN1,A*
G04 #@! TO.N,Net-(X-GAIN1-PadA)*
X131848000Y-103870000D03*
D11*
G04 #@! TO.P,X-GAIN1,S*
G04 #@! TO.N,/ILDAX+15V*
X128598000Y-102870000D03*
D10*
G04 #@! TO.P,X-GAIN1,E*
G04 #@! TO.N,Net-(R5-Pad2)*
X131848000Y-101870000D03*
G04 #@! TD*
G04 #@! TO.P,Y-GAIN1,A*
G04 #@! TO.N,Net-(Y-GAIN1-PadA)*
X131848000Y-91678000D03*
D11*
G04 #@! TO.P,Y-GAIN1,S*
G04 #@! TO.N,/ILDAY+15V*
X128598000Y-90678000D03*
D10*
G04 #@! TO.P,Y-GAIN1,E*
G04 #@! TO.N,Net-(R1-Pad2)*
X131848000Y-89678000D03*
G04 #@! TD*
G04 #@! TO.P,X-OFFS1,A*
G04 #@! TO.N,Net-(R6-Pad2)*
X131848000Y-97774000D03*
D11*
G04 #@! TO.P,X-OFFS1,S*
G04 #@! TO.N,Net-(U1-Pad3)*
X128598000Y-96774000D03*
D10*
G04 #@! TO.P,X-OFFS1,E*
G04 #@! TO.N,GND*
X131848000Y-95774000D03*
G04 #@! TD*
G04 #@! TO.P,Y-OFFS1,A*
G04 #@! TO.N,Net-(R2-Pad2)*
X131848000Y-85582000D03*
D11*
G04 #@! TO.P,Y-OFFS1,S*
G04 #@! TO.N,Net-(U1-Pad10)*
X128598000Y-84582000D03*
D10*
G04 #@! TO.P,Y-OFFS1,E*
G04 #@! TO.N,GND*
X131848000Y-83582000D03*
G04 #@! TD*
D12*
G04 #@! TO.N,/-V15*
G04 #@! TO.C,J1*
G36*
X140852505Y-84245204D02*
X140876773Y-84248804D01*
X140900572Y-84254765D01*
X140923671Y-84263030D01*
X140945850Y-84273520D01*
X140966893Y-84286132D01*
X140986599Y-84300747D01*
X141004777Y-84317223D01*
X141021253Y-84335401D01*
X141035868Y-84355107D01*
X141048480Y-84376150D01*
X141058970Y-84398329D01*
X141067235Y-84421428D01*
X141073196Y-84445227D01*
X141076796Y-84469495D01*
X141078000Y-84493999D01*
X141078000Y-86194001D01*
X141076796Y-86218505D01*
X141073196Y-86242773D01*
X141067235Y-86266572D01*
X141058970Y-86289671D01*
X141048480Y-86311850D01*
X141035868Y-86332893D01*
X141021253Y-86352599D01*
X141004777Y-86370777D01*
X140986599Y-86387253D01*
X140966893Y-86401868D01*
X140945850Y-86414480D01*
X140923671Y-86424970D01*
X140900572Y-86433235D01*
X140876773Y-86439196D01*
X140852505Y-86442796D01*
X140828001Y-86444000D01*
X139587999Y-86444000D01*
X139563495Y-86442796D01*
X139539227Y-86439196D01*
X139515428Y-86433235D01*
X139492329Y-86424970D01*
X139470150Y-86414480D01*
X139449107Y-86401868D01*
X139429401Y-86387253D01*
X139411223Y-86370777D01*
X139394747Y-86352599D01*
X139380132Y-86332893D01*
X139367520Y-86311850D01*
X139357030Y-86289671D01*
X139348765Y-86266572D01*
X139342804Y-86242773D01*
X139339204Y-86218505D01*
X139338000Y-86194001D01*
X139338000Y-84493999D01*
X139339204Y-84469495D01*
X139342804Y-84445227D01*
X139348765Y-84421428D01*
X139357030Y-84398329D01*
X139367520Y-84376150D01*
X139380132Y-84355107D01*
X139394747Y-84335401D01*
X139411223Y-84317223D01*
X139429401Y-84300747D01*
X139449107Y-84286132D01*
X139470150Y-84273520D01*
X139492329Y-84263030D01*
X139515428Y-84254765D01*
X139539227Y-84248804D01*
X139563495Y-84245204D01*
X139587999Y-84244000D01*
X140828001Y-84244000D01*
X140852505Y-84245204D01*
X140852505Y-84245204D01*
G37*
D13*
G04 #@! TD*
G04 #@! TO.P,J1,1*
G04 #@! TO.N,/-V15*
X140208000Y-85344000D03*
D14*
G04 #@! TO.P,J1,2*
G04 #@! TO.N,GND*
X137668000Y-85344000D03*
G04 #@! TO.P,J1,3*
G04 #@! TO.N,/+V15*
X135128000Y-85344000D03*
G04 #@! TD*
D12*
G04 #@! TO.N,GND*
G04 #@! TO.C,X2*
G36*
X136624504Y-109026204D02*
X136648773Y-109029804D01*
X136672571Y-109035765D01*
X136695671Y-109044030D01*
X136717849Y-109054520D01*
X136738893Y-109067133D01*
X136758598Y-109081747D01*
X136776777Y-109098223D01*
X136793253Y-109116402D01*
X136807867Y-109136107D01*
X136820480Y-109157151D01*
X136830970Y-109179329D01*
X136839235Y-109202429D01*
X136845196Y-109226227D01*
X136848796Y-109250496D01*
X136850000Y-109275000D01*
X136850000Y-110725000D01*
X136848796Y-110749504D01*
X136845196Y-110773773D01*
X136839235Y-110797571D01*
X136830970Y-110820671D01*
X136820480Y-110842849D01*
X136807867Y-110863893D01*
X136793253Y-110883598D01*
X136776777Y-110901777D01*
X136758598Y-110918253D01*
X136738893Y-110932867D01*
X136717849Y-110945480D01*
X136695671Y-110955970D01*
X136672571Y-110964235D01*
X136648773Y-110970196D01*
X136624504Y-110973796D01*
X136600000Y-110975000D01*
X135400000Y-110975000D01*
X135375496Y-110973796D01*
X135351227Y-110970196D01*
X135327429Y-110964235D01*
X135304329Y-110955970D01*
X135282151Y-110945480D01*
X135261107Y-110932867D01*
X135241402Y-110918253D01*
X135223223Y-110901777D01*
X135206747Y-110883598D01*
X135192133Y-110863893D01*
X135179520Y-110842849D01*
X135169030Y-110820671D01*
X135160765Y-110797571D01*
X135154804Y-110773773D01*
X135151204Y-110749504D01*
X135150000Y-110725000D01*
X135150000Y-109275000D01*
X135151204Y-109250496D01*
X135154804Y-109226227D01*
X135160765Y-109202429D01*
X135169030Y-109179329D01*
X135179520Y-109157151D01*
X135192133Y-109136107D01*
X135206747Y-109116402D01*
X135223223Y-109098223D01*
X135241402Y-109081747D01*
X135261107Y-109067133D01*
X135282151Y-109054520D01*
X135304329Y-109044030D01*
X135327429Y-109035765D01*
X135351227Y-109029804D01*
X135375496Y-109026204D01*
X135400000Y-109025000D01*
X136600000Y-109025000D01*
X136624504Y-109026204D01*
X136624504Y-109026204D01*
G37*
D15*
G04 #@! TD*
G04 #@! TO.P,X2,1*
G04 #@! TO.N,GND*
X136000000Y-110000000D03*
D16*
G04 #@! TO.P,X2,2*
G04 #@! TO.N,/ILDAX+15V*
X138500000Y-110000000D03*
G04 #@! TO.P,X2,3*
G04 #@! TO.N,/ILDAX-15V*
X141000000Y-110000000D03*
G04 #@! TD*
G04 #@! TO.P,X3,3*
G04 #@! TO.N,/ILDAY-15V*
X130500000Y-110000000D03*
G04 #@! TO.P,X3,2*
G04 #@! TO.N,/ILDAY+15V*
X128000000Y-110000000D03*
D12*
G04 #@! TD*
G04 #@! TO.N,GND*
G04 #@! TO.C,X3*
G36*
X126124504Y-109026204D02*
X126148773Y-109029804D01*
X126172571Y-109035765D01*
X126195671Y-109044030D01*
X126217849Y-109054520D01*
X126238893Y-109067133D01*
X126258598Y-109081747D01*
X126276777Y-109098223D01*
X126293253Y-109116402D01*
X126307867Y-109136107D01*
X126320480Y-109157151D01*
X126330970Y-109179329D01*
X126339235Y-109202429D01*
X126345196Y-109226227D01*
X126348796Y-109250496D01*
X126350000Y-109275000D01*
X126350000Y-110725000D01*
X126348796Y-110749504D01*
X126345196Y-110773773D01*
X126339235Y-110797571D01*
X126330970Y-110820671D01*
X126320480Y-110842849D01*
X126307867Y-110863893D01*
X126293253Y-110883598D01*
X126276777Y-110901777D01*
X126258598Y-110918253D01*
X126238893Y-110932867D01*
X126217849Y-110945480D01*
X126195671Y-110955970D01*
X126172571Y-110964235D01*
X126148773Y-110970196D01*
X126124504Y-110973796D01*
X126100000Y-110975000D01*
X124900000Y-110975000D01*
X124875496Y-110973796D01*
X124851227Y-110970196D01*
X124827429Y-110964235D01*
X124804329Y-110955970D01*
X124782151Y-110945480D01*
X124761107Y-110932867D01*
X124741402Y-110918253D01*
X124723223Y-110901777D01*
X124706747Y-110883598D01*
X124692133Y-110863893D01*
X124679520Y-110842849D01*
X124669030Y-110820671D01*
X124660765Y-110797571D01*
X124654804Y-110773773D01*
X124651204Y-110749504D01*
X124650000Y-110725000D01*
X124650000Y-109275000D01*
X124651204Y-109250496D01*
X124654804Y-109226227D01*
X124660765Y-109202429D01*
X124669030Y-109179329D01*
X124679520Y-109157151D01*
X124692133Y-109136107D01*
X124706747Y-109116402D01*
X124723223Y-109098223D01*
X124741402Y-109081747D01*
X124761107Y-109067133D01*
X124782151Y-109054520D01*
X124804329Y-109044030D01*
X124827429Y-109035765D01*
X124851227Y-109029804D01*
X124875496Y-109026204D01*
X124900000Y-109025000D01*
X126100000Y-109025000D01*
X126124504Y-109026204D01*
X126124504Y-109026204D01*
G37*
D15*
G04 #@! TO.P,X3,1*
G04 #@! TO.N,GND*
X125500000Y-110000000D03*
G04 #@! TD*
D17*
G04 #@! TO.P,REF\002A\002A,*
G04 #@! TO.N,*
X124460000Y-84836000D03*
G04 #@! TD*
G04 #@! TO.P,REF\002A\002A,*
G04 #@! TO.N,*
X146050000Y-110744000D03*
G04 #@! TD*
D18*
G04 #@! TO.P,SV4,6*
G04 #@! TO.N,+5V*
X146812000Y-104648000D03*
G04 #@! TO.P,SV4,5*
G04 #@! TO.N,/CS*
X146812000Y-102108000D03*
G04 #@! TO.P,SV4,4*
G04 #@! TO.N,/SCK*
X146812000Y-99568000D03*
G04 #@! TO.P,SV4,3*
G04 #@! TO.N,/SDI*
X146812000Y-97028000D03*
G04 #@! TO.P,SV4,2*
G04 #@! TO.N,GND*
X146812000Y-94488000D03*
G04 #@! TO.P,SV4,1*
G04 #@! TO.N,/LATCH*
X146812000Y-91948000D03*
G04 #@! TD*
D17*
G04 #@! TO.P,REF\002A\002A,*
G04 #@! TO.N,*
X146050000Y-84836000D03*
G04 #@! TD*
D19*
G04 #@! TO.P,U2,1*
G04 #@! TO.N,+5V*
X140630000Y-103337000D03*
G04 #@! TO.P,U2,2*
G04 #@! TO.N,/CS*
X140630000Y-102687000D03*
G04 #@! TO.P,U2,3*
G04 #@! TO.N,/SCK*
X140630000Y-102037000D03*
G04 #@! TO.P,U2,4*
G04 #@! TO.N,/SDI*
X140630000Y-101387000D03*
G04 #@! TO.P,U2,5*
G04 #@! TO.N,/LATCH*
X136230000Y-101387000D03*
G04 #@! TO.P,U2,6*
G04 #@! TO.N,Net-(R1-Pad1)*
X136230000Y-102037000D03*
G04 #@! TO.P,U2,7*
G04 #@! TO.N,GND*
X136230000Y-102687000D03*
G04 #@! TO.P,U2,8*
G04 #@! TO.N,Net-(R5-Pad1)*
X136230000Y-103337000D03*
G04 #@! TD*
G04 #@! TO.P,U1,1*
G04 #@! TO.N,/ILDAX+15V*
X135734000Y-92792000D03*
G04 #@! TO.P,U1,2*
G04 #@! TO.N,Net-(R5-Pad2)*
X135734000Y-93442000D03*
G04 #@! TO.P,U1,3*
G04 #@! TO.N,Net-(U1-Pad3)*
X135734000Y-94092000D03*
G04 #@! TO.P,U1,4*
G04 #@! TO.N,/+V15*
X135734000Y-94742000D03*
G04 #@! TO.P,U1,5*
G04 #@! TO.N,GND*
X135734000Y-95392000D03*
G04 #@! TO.P,U1,6*
G04 #@! TO.N,Net-(R11-Pad1)*
X135734000Y-96042000D03*
G04 #@! TO.P,U1,7*
G04 #@! TO.N,/ILDAX-15V*
X135734000Y-96692000D03*
G04 #@! TO.P,U1,8*
G04 #@! TO.N,/ILDAY+15V*
X141634000Y-96692000D03*
G04 #@! TO.P,U1,9*
G04 #@! TO.N,Net-(R1-Pad2)*
X141634000Y-96042000D03*
G04 #@! TO.P,U1,10*
G04 #@! TO.N,Net-(U1-Pad10)*
X141634000Y-95392000D03*
G04 #@! TO.P,U1,11*
G04 #@! TO.N,/-V15*
X141634000Y-94742000D03*
G04 #@! TO.P,U1,12*
G04 #@! TO.N,GND*
X141634000Y-94092000D03*
G04 #@! TO.P,U1,13*
G04 #@! TO.N,Net-(R12-Pad1)*
X141634000Y-93442000D03*
G04 #@! TO.P,U1,14*
G04 #@! TO.N,/ILDAY-15V*
X141634000Y-92792000D03*
G04 #@! TD*
D20*
G04 #@! TO.N,GND*
X143002000Y-93980000D03*
X133858000Y-102616000D03*
X133462000Y-95503999D03*
X133096000Y-83312000D03*
G04 #@! TO.N,Net-(R2-Pad2)*
X133096000Y-85852000D03*
G04 #@! TO.N,/+V15*
X137414000Y-94742000D03*
G04 #@! TO.N,/ILDAY-15V*
X143002000Y-92710000D03*
G04 #@! TO.N,Net-(R6-Pad2)*
X133350000Y-98044000D03*
G04 #@! TO.N,Net-(R1-Pad2)*
X130556000Y-89408000D03*
G04 #@! TO.N,Net-(R12-Pad1)*
X140000000Y-92750000D03*
G04 #@! TO.N,Net-(R5-Pad2)*
X130556000Y-101600000D03*
G04 #@! TO.N,Net-(R11-Pad1)*
X139192000Y-96774000D03*
G04 #@! TO.N,Net-(R1-Pad1)*
X133862653Y-101604653D03*
G04 #@! TO.N,Net-(R5-Pad1)*
X133858000Y-103616003D03*
G04 #@! TD*
D21*
G04 #@! TO.N,GND*
X133462000Y-95392000D02*
X133350000Y-95504000D01*
X141634000Y-94092000D02*
X142890000Y-94092000D01*
X142890000Y-94092000D02*
X143002000Y-93980000D01*
X136230000Y-102687000D02*
X133929000Y-102687000D01*
X133929000Y-102687000D02*
X133858000Y-102616000D01*
X133080000Y-95774000D02*
X133350000Y-95504000D01*
X131848000Y-95774000D02*
X133080000Y-95774000D01*
X133573999Y-95392000D02*
X133462000Y-95503999D01*
X135734000Y-95392000D02*
X133573999Y-95392000D01*
X133462000Y-95503999D02*
X133462000Y-95392000D01*
X132826000Y-83582000D02*
X133096000Y-83312000D01*
X131848000Y-83582000D02*
X132826000Y-83582000D01*
X133032500Y-83375500D02*
X133096000Y-83312000D01*
G04 #@! TO.N,+5V*
X140630000Y-103812000D02*
X140630000Y-103337000D01*
X141466000Y-104648000D02*
X140630000Y-103812000D01*
X146050000Y-104648000D02*
X141466000Y-104648000D01*
G04 #@! TO.N,/LATCH*
X140208000Y-100330000D02*
X143764000Y-96774000D01*
X145288000Y-91948000D02*
X146050000Y-91948000D01*
X143764000Y-93472000D02*
X145288000Y-91948000D01*
X143764000Y-96774000D02*
X143764000Y-93472000D01*
X138938000Y-100330000D02*
X136398000Y-100330000D01*
X138938000Y-100330000D02*
X140208000Y-100330000D01*
X137320000Y-100330000D02*
X138938000Y-100330000D01*
X136230000Y-100498000D02*
X136230000Y-101387000D01*
X136398000Y-100330000D02*
X136230000Y-100498000D01*
G04 #@! TO.N,/SDI*
X146050000Y-97028000D02*
X144146410Y-97028000D01*
X140630000Y-100544410D02*
X140630000Y-101387000D01*
X144146410Y-97028000D02*
X140630000Y-100544410D01*
G04 #@! TO.N,/SCK*
X141605000Y-102037000D02*
X140630000Y-102037000D01*
X142819000Y-102037000D02*
X141605000Y-102037000D01*
X145288000Y-99568000D02*
X142819000Y-102037000D01*
X146050000Y-99568000D02*
X145288000Y-99568000D01*
G04 #@! TO.N,/CS*
X141605000Y-102687000D02*
X140630000Y-102687000D01*
X143697000Y-102687000D02*
X141605000Y-102687000D01*
X144276000Y-102108000D02*
X143697000Y-102687000D01*
X146050000Y-102108000D02*
X144276000Y-102108000D01*
G04 #@! TO.N,Net-(R2-Pad2)*
X132016500Y-85852000D02*
X131953000Y-85788500D01*
X133096000Y-85852000D02*
X132016500Y-85852000D01*
G04 #@! TO.N,/+V15*
X137414000Y-94742000D02*
X135734000Y-94742000D01*
G04 #@! TO.N,/ILDAY+15V*
X127206500Y-90678000D02*
X125476000Y-92408500D01*
X128206500Y-90678000D02*
X127206500Y-90678000D01*
X127548000Y-110619000D02*
X127548000Y-110744000D01*
X140659000Y-96692000D02*
X141634000Y-96692000D01*
X137160000Y-93193000D02*
X140659000Y-96692000D01*
X137160000Y-92682998D02*
X137160000Y-93193000D01*
X135155002Y-90678000D02*
X137160000Y-92682998D01*
X128206500Y-90678000D02*
X135155002Y-90678000D01*
X128000000Y-109875000D02*
X128000000Y-110000000D01*
X125476000Y-107351000D02*
X128000000Y-109875000D01*
X125476000Y-99500000D02*
X125476000Y-107351000D01*
X125476000Y-92408500D02*
X125476000Y-99500000D01*
G04 #@! TO.N,/ILDAY-15V*
X142920000Y-92792000D02*
X143002000Y-92710000D01*
X141634000Y-92792000D02*
X142920000Y-92792000D01*
G04 #@! TO.N,/-V15*
X140659000Y-94742000D02*
X141634000Y-94742000D01*
X139000000Y-93083000D02*
X140659000Y-94742000D01*
X139000000Y-87902000D02*
X139000000Y-93083000D01*
X140208000Y-86694000D02*
X139000000Y-87902000D01*
X140208000Y-85344000D02*
X140208000Y-86694000D01*
G04 #@! TO.N,Net-(R6-Pad2)*
X133080000Y-97774000D02*
X133350000Y-98044000D01*
X131848000Y-97774000D02*
X133080000Y-97774000D01*
G04 #@! TO.N,/ILDAX+15V*
X138216000Y-110619000D02*
X138216000Y-110744000D01*
X132530512Y-92991990D02*
X127480010Y-92991990D01*
X135734000Y-92792000D02*
X132730502Y-92792000D01*
X132730502Y-92792000D02*
X132530512Y-92991990D01*
X127480010Y-92991990D02*
X125984000Y-94488000D01*
X125984000Y-94488000D02*
X125984000Y-101854000D01*
X127000000Y-102870000D02*
X128206500Y-102870000D01*
X125984000Y-101854000D02*
X127000000Y-102870000D01*
X131358000Y-106680000D02*
X131572000Y-106680000D01*
X128598000Y-103920000D02*
X131358000Y-106680000D01*
X128598000Y-102870000D02*
X128598000Y-103920000D01*
X138500000Y-109875000D02*
X138500000Y-110000000D01*
X135305000Y-106680000D02*
X138500000Y-109875000D01*
X132000000Y-106680000D02*
X135305000Y-106680000D01*
X131572000Y-106680000D02*
X132000000Y-106680000D01*
G04 #@! TO.N,/ILDAX-15V*
X140716000Y-109220000D02*
X140716000Y-110744000D01*
X135734000Y-96692000D02*
X135734000Y-98708000D01*
X135734000Y-98708000D02*
X133096000Y-101346000D01*
X133096000Y-101346000D02*
X133096000Y-104197002D01*
X133096000Y-104197002D02*
X135070998Y-106172000D01*
X135070998Y-106172000D02*
X137668000Y-106172000D01*
X137668000Y-106172000D02*
X140716000Y-109220000D01*
G04 #@! TO.N,Net-(R1-Pad2)*
X130826000Y-89678000D02*
X130556000Y-89408000D01*
X131848000Y-89678000D02*
X130826000Y-89678000D01*
X140659000Y-96042000D02*
X141634000Y-96042000D01*
X137610010Y-92993010D02*
X140659000Y-96042000D01*
X137610010Y-92496598D02*
X137610010Y-92993010D01*
X134791412Y-89678000D02*
X137610010Y-92496598D01*
X131848000Y-89678000D02*
X134791412Y-89678000D01*
G04 #@! TO.N,Net-(R12-Pad1)*
X140692000Y-93442000D02*
X141634000Y-93442000D01*
X140000000Y-92750000D02*
X140692000Y-93442000D01*
G04 #@! TO.N,Net-(R5-Pad2)*
X126746000Y-97790000D02*
X130556000Y-101600000D01*
X126746000Y-94488000D02*
X126746000Y-97790000D01*
X135734000Y-93442000D02*
X127792000Y-93442000D01*
X127792000Y-93442000D02*
X126746000Y-94488000D01*
X130826000Y-101870000D02*
X130556000Y-101600000D01*
X131848000Y-101870000D02*
X130826000Y-101870000D01*
G04 #@! TO.N,Net-(R11-Pad1)*
X135734000Y-96042000D02*
X138460000Y-96042000D01*
X138460000Y-96042000D02*
X139192000Y-96774000D01*
G04 #@! TO.N,Net-(U1-Pad3)*
X134759000Y-94092000D02*
X135734000Y-94092000D01*
X128598000Y-95542000D02*
X130048000Y-94092000D01*
X128598000Y-96774000D02*
X128598000Y-95542000D01*
X130048000Y-94092000D02*
X134759000Y-94092000D01*
G04 #@! TO.N,Net-(U1-Pad10)*
X140659000Y-95392000D02*
X141634000Y-95392000D01*
X133125822Y-87376000D02*
X138060020Y-92310198D01*
X138060020Y-92310198D02*
X138060020Y-92793020D01*
X138060020Y-92793020D02*
X140659000Y-95392000D01*
X130342000Y-87376000D02*
X130810000Y-87376000D01*
X128598000Y-85632000D02*
X130342000Y-87376000D01*
X128598000Y-84582000D02*
X128598000Y-85632000D01*
X130810000Y-87376000D02*
X133125822Y-87376000D01*
G04 #@! TO.N,Net-(R1-Pad1)*
X134295000Y-102037000D02*
X133862653Y-101604653D01*
X136230000Y-102037000D02*
X134295000Y-102037000D01*
G04 #@! TO.N,Net-(R5-Pad1)*
X136230000Y-103337000D02*
X134137003Y-103337000D01*
X134137003Y-103337000D02*
X133858000Y-103616003D01*
G04 #@! TD*
M02*
