M48
;DRILL file {KiCad (5.0.2)-1} date 31.03.2019 11:29:22
;FORMAT={-:-/ absolute / metric / decimal}
FMAT,2
METRIC,TZ
T1C0.400
T2C0.950
T3C1.016
T4C1.200
T5C2.500
%
G90
G05
T1
X130.556Y-89.408
X130.556Y-101.6
X133.096Y-83.312
X133.096Y-85.852
X133.35Y-98.044
X133.462Y-95.504
X133.858Y-102.616
X133.858Y-103.616
X133.863Y-101.605
X137.414Y-94.742
X139.192Y-96.774
X140.Y-92.75
X143.002Y-92.71
X143.002Y-93.98
T2
X125.5Y-110.
X128.Y-110.
X130.5Y-110.
X136.Y-110.
X138.5Y-110.
X141.Y-110.
T3
X146.812Y-91.948
X146.812Y-94.488
X146.812Y-97.028
X146.812Y-99.568
X146.812Y-102.108
X146.812Y-104.648
T4
X135.128Y-85.344
X137.668Y-85.344
X140.208Y-85.344
T5
X146.05Y-110.744
X124.46Y-84.836
X146.05Y-84.836
T0
M30
