G04 #@! TF.GenerationSoftware,KiCad,Pcbnew,(5.0.2)-1*
G04 #@! TF.CreationDate,2019-03-31T11:29:19+03:00*
G04 #@! TF.ProjectId,galvo-schematic,67616c76-6f2d-4736-9368-656d61746963,rev?*
G04 #@! TF.SameCoordinates,Original*
G04 #@! TF.FileFunction,Soldermask,Top*
G04 #@! TF.FilePolarity,Negative*
%FSLAX46Y46*%
G04 Gerber Fmt 4.6, Leading zero omitted, Abs format (unit mm)*
G04 Created by KiCad (PCBNEW (5.0.2)-1) date 31.03.2019 11:29:19*
%MOMM*%
%LPD*%
G01*
G04 APERTURE LIST*
%ADD10C,0.100000*%
G04 APERTURE END LIST*
D10*
G36*
X146589625Y-108965095D02*
X146589627Y-108965096D01*
X146589628Y-108965096D01*
X146800714Y-109052531D01*
X146926303Y-109104552D01*
X147229306Y-109307011D01*
X147486989Y-109564694D01*
X147576442Y-109698571D01*
X147689448Y-109867697D01*
X147814338Y-110169206D01*
X147828905Y-110204375D01*
X147900000Y-110561791D01*
X147900000Y-110926209D01*
X147828905Y-111283625D01*
X147689448Y-111620303D01*
X147486989Y-111923306D01*
X147229306Y-112180989D01*
X146926303Y-112383448D01*
X146589628Y-112522904D01*
X146589627Y-112522904D01*
X146589625Y-112522905D01*
X146232209Y-112594000D01*
X145867791Y-112594000D01*
X145510375Y-112522905D01*
X145510373Y-112522904D01*
X145510372Y-112522904D01*
X145173697Y-112383448D01*
X144870694Y-112180989D01*
X144613011Y-111923306D01*
X144410552Y-111620303D01*
X144271095Y-111283625D01*
X144200000Y-110926209D01*
X144200000Y-110561791D01*
X144271095Y-110204375D01*
X144285663Y-110169206D01*
X144410552Y-109867697D01*
X144523558Y-109698571D01*
X144613011Y-109564694D01*
X144870694Y-109307011D01*
X145173697Y-109104552D01*
X145299286Y-109052531D01*
X145510372Y-108965096D01*
X145510373Y-108965096D01*
X145510375Y-108965095D01*
X145867791Y-108894000D01*
X146232209Y-108894000D01*
X146589625Y-108965095D01*
X146589625Y-108965095D01*
G37*
G36*
X128176428Y-108988022D02*
X128346080Y-109039486D01*
X128502434Y-109123058D01*
X128639475Y-109235525D01*
X128751942Y-109372566D01*
X128835514Y-109528919D01*
X128886978Y-109698571D01*
X128900000Y-109830788D01*
X128900000Y-110169211D01*
X128896536Y-110204375D01*
X128886977Y-110301430D01*
X128835514Y-110471081D01*
X128751942Y-110627434D01*
X128639475Y-110764475D01*
X128502434Y-110876942D01*
X128346081Y-110960514D01*
X128176429Y-111011978D01*
X128000000Y-111029355D01*
X127823572Y-111011978D01*
X127653920Y-110960514D01*
X127497567Y-110876942D01*
X127418357Y-110811936D01*
X127360525Y-110764475D01*
X127248057Y-110627432D01*
X127164486Y-110471081D01*
X127113023Y-110301431D01*
X127113022Y-110301429D01*
X127100000Y-110169212D01*
X127100000Y-109830789D01*
X127113022Y-109698572D01*
X127164486Y-109528920D01*
X127248058Y-109372566D01*
X127360525Y-109235525D01*
X127497566Y-109123058D01*
X127653919Y-109039486D01*
X127823571Y-108988022D01*
X128000000Y-108970645D01*
X128176428Y-108988022D01*
X128176428Y-108988022D01*
G37*
G36*
X141176428Y-108988022D02*
X141346080Y-109039486D01*
X141502434Y-109123058D01*
X141639475Y-109235525D01*
X141751942Y-109372566D01*
X141835514Y-109528919D01*
X141886978Y-109698571D01*
X141900000Y-109830788D01*
X141900000Y-110169211D01*
X141896536Y-110204375D01*
X141886977Y-110301430D01*
X141835514Y-110471081D01*
X141751942Y-110627434D01*
X141639475Y-110764475D01*
X141502434Y-110876942D01*
X141346081Y-110960514D01*
X141176429Y-111011978D01*
X141000000Y-111029355D01*
X140823572Y-111011978D01*
X140653920Y-110960514D01*
X140497567Y-110876942D01*
X140418357Y-110811936D01*
X140360525Y-110764475D01*
X140248057Y-110627432D01*
X140164486Y-110471081D01*
X140113023Y-110301431D01*
X140113022Y-110301429D01*
X140100000Y-110169212D01*
X140100000Y-109830789D01*
X140113022Y-109698572D01*
X140164486Y-109528920D01*
X140248058Y-109372566D01*
X140360525Y-109235525D01*
X140497566Y-109123058D01*
X140653919Y-109039486D01*
X140823571Y-108988022D01*
X141000000Y-108970645D01*
X141176428Y-108988022D01*
X141176428Y-108988022D01*
G37*
G36*
X138676428Y-108988022D02*
X138846080Y-109039486D01*
X139002434Y-109123058D01*
X139139475Y-109235525D01*
X139251942Y-109372566D01*
X139335514Y-109528919D01*
X139386978Y-109698571D01*
X139400000Y-109830788D01*
X139400000Y-110169211D01*
X139396536Y-110204375D01*
X139386977Y-110301430D01*
X139335514Y-110471081D01*
X139251942Y-110627434D01*
X139139475Y-110764475D01*
X139002434Y-110876942D01*
X138846081Y-110960514D01*
X138676429Y-111011978D01*
X138500000Y-111029355D01*
X138323572Y-111011978D01*
X138153920Y-110960514D01*
X137997567Y-110876942D01*
X137918357Y-110811936D01*
X137860525Y-110764475D01*
X137748057Y-110627432D01*
X137664486Y-110471081D01*
X137613023Y-110301431D01*
X137613022Y-110301429D01*
X137600000Y-110169212D01*
X137600000Y-109830789D01*
X137613022Y-109698572D01*
X137664486Y-109528920D01*
X137748058Y-109372566D01*
X137860525Y-109235525D01*
X137997566Y-109123058D01*
X138153919Y-109039486D01*
X138323571Y-108988022D01*
X138500000Y-108970645D01*
X138676428Y-108988022D01*
X138676428Y-108988022D01*
G37*
G36*
X130676428Y-108988022D02*
X130846080Y-109039486D01*
X131002434Y-109123058D01*
X131139475Y-109235525D01*
X131251942Y-109372566D01*
X131335514Y-109528919D01*
X131386978Y-109698571D01*
X131400000Y-109830788D01*
X131400000Y-110169211D01*
X131396536Y-110204375D01*
X131386977Y-110301430D01*
X131335514Y-110471081D01*
X131251942Y-110627434D01*
X131139475Y-110764475D01*
X131002434Y-110876942D01*
X130846081Y-110960514D01*
X130676429Y-111011978D01*
X130500000Y-111029355D01*
X130323572Y-111011978D01*
X130153920Y-110960514D01*
X129997567Y-110876942D01*
X129918357Y-110811936D01*
X129860525Y-110764475D01*
X129748057Y-110627432D01*
X129664486Y-110471081D01*
X129613023Y-110301431D01*
X129613022Y-110301429D01*
X129600000Y-110169212D01*
X129600000Y-109830789D01*
X129613022Y-109698572D01*
X129664486Y-109528920D01*
X129748058Y-109372566D01*
X129860525Y-109235525D01*
X129997566Y-109123058D01*
X130153919Y-109039486D01*
X130323571Y-108988022D01*
X130500000Y-108970645D01*
X130676428Y-108988022D01*
X130676428Y-108988022D01*
G37*
G36*
X136743660Y-108979205D02*
X136779980Y-108990222D01*
X136813459Y-109008118D01*
X136842802Y-109032198D01*
X136866882Y-109061541D01*
X136884778Y-109095020D01*
X136895795Y-109131340D01*
X136900000Y-109174035D01*
X136900000Y-110825965D01*
X136895795Y-110868660D01*
X136884778Y-110904980D01*
X136866882Y-110938459D01*
X136842802Y-110967802D01*
X136813459Y-110991882D01*
X136779980Y-111009778D01*
X136743660Y-111020795D01*
X136700965Y-111025000D01*
X135299035Y-111025000D01*
X135256340Y-111020795D01*
X135220020Y-111009778D01*
X135186541Y-110991882D01*
X135157198Y-110967802D01*
X135133118Y-110938459D01*
X135115222Y-110904980D01*
X135104205Y-110868660D01*
X135100000Y-110825965D01*
X135100000Y-109174035D01*
X135104205Y-109131340D01*
X135115222Y-109095020D01*
X135133118Y-109061541D01*
X135157198Y-109032198D01*
X135186541Y-109008118D01*
X135220020Y-108990222D01*
X135256340Y-108979205D01*
X135299035Y-108975000D01*
X136700965Y-108975000D01*
X136743660Y-108979205D01*
X136743660Y-108979205D01*
G37*
G36*
X126243660Y-108979205D02*
X126279980Y-108990222D01*
X126313459Y-109008118D01*
X126342802Y-109032198D01*
X126366882Y-109061541D01*
X126384778Y-109095020D01*
X126395795Y-109131340D01*
X126400000Y-109174035D01*
X126400000Y-110825965D01*
X126395795Y-110868660D01*
X126384778Y-110904980D01*
X126366882Y-110938459D01*
X126342802Y-110967802D01*
X126313459Y-110991882D01*
X126279980Y-111009778D01*
X126243660Y-111020795D01*
X126200965Y-111025000D01*
X124799035Y-111025000D01*
X124756340Y-111020795D01*
X124720020Y-111009778D01*
X124686541Y-110991882D01*
X124657198Y-110967802D01*
X124633118Y-110938459D01*
X124615222Y-110904980D01*
X124604205Y-110868660D01*
X124600000Y-110825965D01*
X124600000Y-109174035D01*
X124604205Y-109131340D01*
X124615222Y-109095020D01*
X124633118Y-109061541D01*
X124657198Y-109032198D01*
X124686541Y-109008118D01*
X124720020Y-108990222D01*
X124756340Y-108979205D01*
X124799035Y-108975000D01*
X126200965Y-108975000D01*
X126243660Y-108979205D01*
X126243660Y-108979205D01*
G37*
G36*
X147743293Y-103796895D02*
X147906085Y-103846278D01*
X148056114Y-103926470D01*
X148187612Y-104034388D01*
X148295530Y-104165886D01*
X148375722Y-104315915D01*
X148425105Y-104478707D01*
X148441779Y-104648000D01*
X148425105Y-104817293D01*
X148375722Y-104980085D01*
X148295530Y-105130114D01*
X148187612Y-105261612D01*
X148056114Y-105369530D01*
X147906085Y-105449722D01*
X147743293Y-105499105D01*
X147616426Y-105511600D01*
X146007574Y-105511600D01*
X145880707Y-105499105D01*
X145717915Y-105449722D01*
X145567886Y-105369530D01*
X145436388Y-105261612D01*
X145328470Y-105130114D01*
X145248278Y-104980085D01*
X145198895Y-104817293D01*
X145182221Y-104648000D01*
X145198895Y-104478707D01*
X145248278Y-104315915D01*
X145328470Y-104165886D01*
X145436388Y-104034388D01*
X145567886Y-103926470D01*
X145717915Y-103846278D01*
X145880707Y-103796895D01*
X146007574Y-103784400D01*
X147616426Y-103784400D01*
X147743293Y-103796895D01*
X147743293Y-103796895D01*
G37*
G36*
X132498000Y-104520000D02*
X131198000Y-104520000D01*
X131198000Y-103220000D01*
X132498000Y-103220000D01*
X132498000Y-104520000D01*
X132498000Y-104520000D01*
G37*
G36*
X129398000Y-103720000D02*
X127798000Y-103720000D01*
X127798000Y-102020000D01*
X129398000Y-102020000D01*
X129398000Y-103720000D01*
X129398000Y-103720000D01*
G37*
G36*
X137005000Y-103612000D02*
X135455000Y-103612000D01*
X135455000Y-101112000D01*
X137005000Y-101112000D01*
X137005000Y-103612000D01*
X137005000Y-103612000D01*
G37*
G36*
X141405000Y-103612000D02*
X139855000Y-103612000D01*
X139855000Y-101112000D01*
X141405000Y-101112000D01*
X141405000Y-103612000D01*
X141405000Y-103612000D01*
G37*
G36*
X147743293Y-101256895D02*
X147906085Y-101306278D01*
X148056114Y-101386470D01*
X148187612Y-101494388D01*
X148295530Y-101625886D01*
X148375722Y-101775915D01*
X148425105Y-101938707D01*
X148441779Y-102108000D01*
X148425105Y-102277293D01*
X148375722Y-102440085D01*
X148295530Y-102590114D01*
X148187612Y-102721612D01*
X148056114Y-102829530D01*
X147906085Y-102909722D01*
X147743293Y-102959105D01*
X147616426Y-102971600D01*
X146007574Y-102971600D01*
X145880707Y-102959105D01*
X145717915Y-102909722D01*
X145567886Y-102829530D01*
X145436388Y-102721612D01*
X145328470Y-102590114D01*
X145248278Y-102440085D01*
X145198895Y-102277293D01*
X145182221Y-102108000D01*
X145198895Y-101938707D01*
X145248278Y-101775915D01*
X145328470Y-101625886D01*
X145436388Y-101494388D01*
X145567886Y-101386470D01*
X145717915Y-101306278D01*
X145880707Y-101256895D01*
X146007574Y-101244400D01*
X147616426Y-101244400D01*
X147743293Y-101256895D01*
X147743293Y-101256895D01*
G37*
G36*
X132498000Y-102520000D02*
X131198000Y-102520000D01*
X131198000Y-101220000D01*
X132498000Y-101220000D01*
X132498000Y-102520000D01*
X132498000Y-102520000D01*
G37*
G36*
X147743293Y-98716895D02*
X147906085Y-98766278D01*
X148056114Y-98846470D01*
X148187612Y-98954388D01*
X148295530Y-99085886D01*
X148375722Y-99235915D01*
X148425105Y-99398707D01*
X148441779Y-99568000D01*
X148425105Y-99737293D01*
X148375722Y-99900085D01*
X148295530Y-100050114D01*
X148187612Y-100181612D01*
X148056114Y-100289530D01*
X147906085Y-100369722D01*
X147743293Y-100419105D01*
X147616426Y-100431600D01*
X146007574Y-100431600D01*
X145880707Y-100419105D01*
X145717915Y-100369722D01*
X145567886Y-100289530D01*
X145436388Y-100181612D01*
X145328470Y-100050114D01*
X145248278Y-99900085D01*
X145198895Y-99737293D01*
X145182221Y-99568000D01*
X145198895Y-99398707D01*
X145248278Y-99235915D01*
X145328470Y-99085886D01*
X145436388Y-98954388D01*
X145567886Y-98846470D01*
X145717915Y-98766278D01*
X145880707Y-98716895D01*
X146007574Y-98704400D01*
X147616426Y-98704400D01*
X147743293Y-98716895D01*
X147743293Y-98716895D01*
G37*
G36*
X132498000Y-98424000D02*
X131198000Y-98424000D01*
X131198000Y-97124000D01*
X132498000Y-97124000D01*
X132498000Y-98424000D01*
X132498000Y-98424000D01*
G37*
G36*
X147743293Y-96176895D02*
X147906085Y-96226278D01*
X148056114Y-96306470D01*
X148187612Y-96414388D01*
X148295530Y-96545886D01*
X148375722Y-96695915D01*
X148425105Y-96858707D01*
X148441779Y-97028000D01*
X148425105Y-97197293D01*
X148375722Y-97360085D01*
X148295530Y-97510114D01*
X148187612Y-97641612D01*
X148056114Y-97749530D01*
X147906085Y-97829722D01*
X147743293Y-97879105D01*
X147616426Y-97891600D01*
X146007574Y-97891600D01*
X145880707Y-97879105D01*
X145717915Y-97829722D01*
X145567886Y-97749530D01*
X145436388Y-97641612D01*
X145328470Y-97510114D01*
X145248278Y-97360085D01*
X145198895Y-97197293D01*
X145182221Y-97028000D01*
X145198895Y-96858707D01*
X145248278Y-96695915D01*
X145328470Y-96545886D01*
X145436388Y-96414388D01*
X145567886Y-96306470D01*
X145717915Y-96226278D01*
X145880707Y-96176895D01*
X146007574Y-96164400D01*
X147616426Y-96164400D01*
X147743293Y-96176895D01*
X147743293Y-96176895D01*
G37*
G36*
X129398000Y-97624000D02*
X127798000Y-97624000D01*
X127798000Y-95924000D01*
X129398000Y-95924000D01*
X129398000Y-97624000D01*
X129398000Y-97624000D01*
G37*
G36*
X136509000Y-96967000D02*
X134959000Y-96967000D01*
X134959000Y-92517000D01*
X136509000Y-92517000D01*
X136509000Y-96967000D01*
X136509000Y-96967000D01*
G37*
G36*
X142409000Y-96967000D02*
X140859000Y-96967000D01*
X140859000Y-92517000D01*
X142409000Y-92517000D01*
X142409000Y-96967000D01*
X142409000Y-96967000D01*
G37*
G36*
X132498000Y-96424000D02*
X131198000Y-96424000D01*
X131198000Y-95124000D01*
X132498000Y-95124000D01*
X132498000Y-96424000D01*
X132498000Y-96424000D01*
G37*
G36*
X147743293Y-93636895D02*
X147906085Y-93686278D01*
X148056114Y-93766470D01*
X148187612Y-93874388D01*
X148295530Y-94005886D01*
X148375722Y-94155915D01*
X148425105Y-94318707D01*
X148441779Y-94488000D01*
X148425105Y-94657293D01*
X148375722Y-94820085D01*
X148295530Y-94970114D01*
X148187612Y-95101612D01*
X148056114Y-95209530D01*
X147906085Y-95289722D01*
X147743293Y-95339105D01*
X147616426Y-95351600D01*
X146007574Y-95351600D01*
X145880707Y-95339105D01*
X145717915Y-95289722D01*
X145567886Y-95209530D01*
X145436388Y-95101612D01*
X145328470Y-94970114D01*
X145248278Y-94820085D01*
X145198895Y-94657293D01*
X145182221Y-94488000D01*
X145198895Y-94318707D01*
X145248278Y-94155915D01*
X145328470Y-94005886D01*
X145436388Y-93874388D01*
X145567886Y-93766470D01*
X145717915Y-93686278D01*
X145880707Y-93636895D01*
X146007574Y-93624400D01*
X147616426Y-93624400D01*
X147743293Y-93636895D01*
X147743293Y-93636895D01*
G37*
G36*
X147743293Y-91096895D02*
X147906085Y-91146278D01*
X148056114Y-91226470D01*
X148187612Y-91334388D01*
X148295530Y-91465886D01*
X148375722Y-91615915D01*
X148425105Y-91778707D01*
X148441779Y-91948000D01*
X148425105Y-92117293D01*
X148375722Y-92280085D01*
X148295530Y-92430114D01*
X148187612Y-92561612D01*
X148056114Y-92669530D01*
X147906085Y-92749722D01*
X147743293Y-92799105D01*
X147616426Y-92811600D01*
X146007574Y-92811600D01*
X145880707Y-92799105D01*
X145717915Y-92749722D01*
X145567886Y-92669530D01*
X145436388Y-92561612D01*
X145328470Y-92430114D01*
X145248278Y-92280085D01*
X145198895Y-92117293D01*
X145182221Y-91948000D01*
X145198895Y-91778707D01*
X145248278Y-91615915D01*
X145328470Y-91465886D01*
X145436388Y-91334388D01*
X145567886Y-91226470D01*
X145717915Y-91146278D01*
X145880707Y-91096895D01*
X146007574Y-91084400D01*
X147616426Y-91084400D01*
X147743293Y-91096895D01*
X147743293Y-91096895D01*
G37*
G36*
X132498000Y-92328000D02*
X131198000Y-92328000D01*
X131198000Y-91028000D01*
X132498000Y-91028000D01*
X132498000Y-92328000D01*
X132498000Y-92328000D01*
G37*
G36*
X129398000Y-91528000D02*
X127798000Y-91528000D01*
X127798000Y-89828000D01*
X129398000Y-89828000D01*
X129398000Y-91528000D01*
X129398000Y-91528000D01*
G37*
G36*
X132498000Y-90328000D02*
X131198000Y-90328000D01*
X131198000Y-89028000D01*
X132498000Y-89028000D01*
X132498000Y-90328000D01*
X132498000Y-90328000D01*
G37*
G36*
X146589625Y-83057095D02*
X146589627Y-83057096D01*
X146589628Y-83057096D01*
X146926303Y-83196552D01*
X147229306Y-83399011D01*
X147486989Y-83656694D01*
X147689448Y-83959697D01*
X147822159Y-84280087D01*
X147828905Y-84296375D01*
X147900000Y-84653791D01*
X147900000Y-85018209D01*
X147828905Y-85375625D01*
X147828904Y-85375628D01*
X147689448Y-85712303D01*
X147486989Y-86015306D01*
X147229306Y-86272989D01*
X147074379Y-86376507D01*
X146926303Y-86475448D01*
X146589628Y-86614904D01*
X146589627Y-86614904D01*
X146589625Y-86614905D01*
X146232209Y-86686000D01*
X145867791Y-86686000D01*
X145510375Y-86614905D01*
X145510373Y-86614904D01*
X145510372Y-86614904D01*
X145173697Y-86475448D01*
X145025621Y-86376507D01*
X144870694Y-86272989D01*
X144613011Y-86015306D01*
X144410552Y-85712303D01*
X144271096Y-85375628D01*
X144271095Y-85375625D01*
X144200000Y-85018209D01*
X144200000Y-84653791D01*
X144271095Y-84296375D01*
X144277842Y-84280087D01*
X144410552Y-83959697D01*
X144613011Y-83656694D01*
X144870694Y-83399011D01*
X145173697Y-83196552D01*
X145510372Y-83057096D01*
X145510373Y-83057096D01*
X145510375Y-83057095D01*
X145867791Y-82986000D01*
X146232209Y-82986000D01*
X146589625Y-83057095D01*
X146589625Y-83057095D01*
G37*
G36*
X124999625Y-83057095D02*
X124999627Y-83057096D01*
X124999628Y-83057096D01*
X125336303Y-83196552D01*
X125639306Y-83399011D01*
X125896989Y-83656694D01*
X126099448Y-83959697D01*
X126232159Y-84280087D01*
X126238905Y-84296375D01*
X126310000Y-84653791D01*
X126310000Y-85018209D01*
X126238905Y-85375625D01*
X126238904Y-85375628D01*
X126099448Y-85712303D01*
X125896989Y-86015306D01*
X125639306Y-86272989D01*
X125484379Y-86376507D01*
X125336303Y-86475448D01*
X124999628Y-86614904D01*
X124999627Y-86614904D01*
X124999625Y-86614905D01*
X124642209Y-86686000D01*
X124277791Y-86686000D01*
X123920375Y-86614905D01*
X123920373Y-86614904D01*
X123920372Y-86614904D01*
X123583697Y-86475448D01*
X123435621Y-86376507D01*
X123280694Y-86272989D01*
X123023011Y-86015306D01*
X122820552Y-85712303D01*
X122681096Y-85375628D01*
X122681095Y-85375625D01*
X122610000Y-85018209D01*
X122610000Y-84653791D01*
X122681095Y-84296375D01*
X122687842Y-84280087D01*
X122820552Y-83959697D01*
X123023011Y-83656694D01*
X123280694Y-83399011D01*
X123583697Y-83196552D01*
X123920372Y-83057096D01*
X123920373Y-83057096D01*
X123920375Y-83057095D01*
X124277791Y-82986000D01*
X124642209Y-82986000D01*
X124999625Y-83057095D01*
X124999625Y-83057095D01*
G37*
G36*
X137848349Y-84207311D02*
X138021773Y-84259919D01*
X138059504Y-84280087D01*
X138181597Y-84345347D01*
X138321686Y-84460314D01*
X138436653Y-84600403D01*
X138522081Y-84760228D01*
X138574688Y-84933649D01*
X138574688Y-84933651D01*
X138588000Y-85068803D01*
X138588000Y-85619198D01*
X138574689Y-85754349D01*
X138522081Y-85927773D01*
X138476418Y-86013201D01*
X138436653Y-86087597D01*
X138321686Y-86227686D01*
X138238457Y-86295989D01*
X138181598Y-86342652D01*
X138021772Y-86428081D01*
X137848348Y-86480689D01*
X137668000Y-86498452D01*
X137487651Y-86480689D01*
X137314227Y-86428081D01*
X137214183Y-86374606D01*
X137154403Y-86342653D01*
X137014314Y-86227686D01*
X136929296Y-86124090D01*
X136899348Y-86087598D01*
X136813919Y-85927772D01*
X136761311Y-85754348D01*
X136748000Y-85619197D01*
X136748000Y-85068802D01*
X136761311Y-84933651D01*
X136813919Y-84760227D01*
X136899349Y-84600402D01*
X137014315Y-84460314D01*
X137154404Y-84345347D01*
X137276497Y-84280087D01*
X137314228Y-84259919D01*
X137487652Y-84207311D01*
X137668000Y-84189548D01*
X137848349Y-84207311D01*
X137848349Y-84207311D01*
G37*
G36*
X135308349Y-84207311D02*
X135481773Y-84259919D01*
X135519504Y-84280087D01*
X135641597Y-84345347D01*
X135781686Y-84460314D01*
X135896653Y-84600403D01*
X135982081Y-84760228D01*
X136034688Y-84933649D01*
X136034688Y-84933651D01*
X136048000Y-85068803D01*
X136048000Y-85619198D01*
X136034689Y-85754349D01*
X135982081Y-85927773D01*
X135936418Y-86013201D01*
X135896653Y-86087597D01*
X135781686Y-86227686D01*
X135698457Y-86295989D01*
X135641598Y-86342652D01*
X135481772Y-86428081D01*
X135308348Y-86480689D01*
X135128000Y-86498452D01*
X134947651Y-86480689D01*
X134774227Y-86428081D01*
X134674183Y-86374606D01*
X134614403Y-86342653D01*
X134474314Y-86227686D01*
X134389296Y-86124090D01*
X134359348Y-86087598D01*
X134273919Y-85927772D01*
X134221311Y-85754348D01*
X134208000Y-85619197D01*
X134208000Y-85068802D01*
X134221311Y-84933651D01*
X134273919Y-84760227D01*
X134359349Y-84600402D01*
X134474315Y-84460314D01*
X134614404Y-84345347D01*
X134736497Y-84280087D01*
X134774228Y-84259919D01*
X134947652Y-84207311D01*
X135128000Y-84189548D01*
X135308349Y-84207311D01*
X135308349Y-84207311D01*
G37*
G36*
X140972474Y-84198185D02*
X141008606Y-84209145D01*
X141041913Y-84226948D01*
X141071099Y-84250901D01*
X141095052Y-84280087D01*
X141112855Y-84313394D01*
X141123815Y-84349526D01*
X141128000Y-84392011D01*
X141128000Y-86295989D01*
X141123815Y-86338474D01*
X141112855Y-86374606D01*
X141095052Y-86407913D01*
X141071099Y-86437099D01*
X141041913Y-86461052D01*
X141008606Y-86478855D01*
X140972474Y-86489815D01*
X140929989Y-86494000D01*
X139486011Y-86494000D01*
X139443526Y-86489815D01*
X139407394Y-86478855D01*
X139374087Y-86461052D01*
X139344901Y-86437099D01*
X139320948Y-86407913D01*
X139303145Y-86374606D01*
X139292185Y-86338474D01*
X139288000Y-86295989D01*
X139288000Y-84392011D01*
X139292185Y-84349526D01*
X139303145Y-84313394D01*
X139320948Y-84280087D01*
X139344901Y-84250901D01*
X139374087Y-84226948D01*
X139407394Y-84209145D01*
X139443526Y-84198185D01*
X139486011Y-84194000D01*
X140929989Y-84194000D01*
X140972474Y-84198185D01*
X140972474Y-84198185D01*
G37*
G36*
X132498000Y-86232000D02*
X131198000Y-86232000D01*
X131198000Y-84932000D01*
X132498000Y-84932000D01*
X132498000Y-86232000D01*
X132498000Y-86232000D01*
G37*
G36*
X129398000Y-85432000D02*
X127798000Y-85432000D01*
X127798000Y-83732000D01*
X129398000Y-83732000D01*
X129398000Y-85432000D01*
X129398000Y-85432000D01*
G37*
G36*
X132498000Y-84232000D02*
X131198000Y-84232000D01*
X131198000Y-82932000D01*
X132498000Y-82932000D01*
X132498000Y-84232000D01*
X132498000Y-84232000D01*
G37*
M02*
